<mxfile host="app.diagrams.net" modified="2024-04-21T22:33:35.305Z" agent="Mozilla/5.0 (Windows NT 10.0; Win64; x64) AppleWebKit/537.36 (KHTML, like Gecko) Chrome/123.0.0.0 Safari/537.36" version="24.2.5" etag="cRCySiC9AEzKYcL32JfI" type="github">
  <diagram name="Page-1" id="dT93WXWRJul1XLMJWpAd">
    <mxGraphModel>
      <root>
        <mxCell id="0" />
        <mxCell id="1" parent="0" />
      </root>
    </mxGraphModel>
  </diagram>
</mxfile>
